<mxfile host="app.diagrams.net" modified="2023-10-16T05:06:11.282Z" agent="Mozilla/5.0 (X11; Linux x86_64) AppleWebKit/537.36 (KHTML, like Gecko) Chrome/117.0.0.0 Safari/537.36" etag="vAHSfpEKB2EBviltyJCf" version="22.0.4" type="github">
  <diagram id="R2lEEEUBdFMjLlhIrx00" name="Page-1">
    <mxGraphModel dx="667" dy="355" grid="1" gridSize="10" guides="1" tooltips="1" connect="1" arrows="1" fold="1" page="1" pageScale="1" pageWidth="850" pageHeight="1100" math="0" shadow="0" extFonts="Permanent Marker^https://fonts.googleapis.com/css?family=Permanent+Marker">
      <root>
        <mxCell id="0" />
        <mxCell id="1" parent="0" />
        <mxCell id="mN9uIAr1oCqCLTwYiSw4-1" value="Usuario" style="rounded=0;whiteSpace=wrap;html=1;fontSize=8;labelBackgroundColor=none;" vertex="1" parent="1">
          <mxGeometry x="150" y="100" width="70" height="30" as="geometry" />
        </mxCell>
        <mxCell id="mN9uIAr1oCqCLTwYiSw4-2" value="" style="endArrow=none;html=1;rounded=0;exitX=1;exitY=0;exitDx=0;exitDy=0;entryX=0.248;entryY=0.94;entryDx=0;entryDy=0;entryPerimeter=0;labelBackgroundColor=none;fontColor=default;" edge="1" parent="1" source="mN9uIAr1oCqCLTwYiSw4-1" target="mN9uIAr1oCqCLTwYiSw4-3">
          <mxGeometry width="50" height="50" relative="1" as="geometry">
            <mxPoint x="230" y="140" as="sourcePoint" />
            <mxPoint x="240" y="90" as="targetPoint" />
          </mxGeometry>
        </mxCell>
        <mxCell id="mN9uIAr1oCqCLTwYiSw4-3" value="&lt;u style=&quot;font-size: 8px;&quot;&gt;ID&lt;/u&gt;" style="ellipse;whiteSpace=wrap;html=1;rounded=0;labelBackgroundColor=none;fontSize=8;" vertex="1" parent="1">
          <mxGeometry x="226" y="82" width="30" height="20" as="geometry" />
        </mxCell>
        <mxCell id="mN9uIAr1oCqCLTwYiSw4-4" value="&lt;font style=&quot;font-size: 8px;&quot;&gt;nombre&lt;/font&gt;" style="ellipse;whiteSpace=wrap;html=1;rounded=0;labelBackgroundColor=none;fontSize=8;" vertex="1" parent="1">
          <mxGeometry x="182" y="76" width="40" height="20" as="geometry" />
        </mxCell>
        <mxCell id="mN9uIAr1oCqCLTwYiSw4-5" value="" style="endArrow=none;html=1;rounded=0;entryX=0.6;entryY=0.99;entryDx=0;entryDy=0;entryPerimeter=0;exitX=0.61;exitY=0.007;exitDx=0;exitDy=0;exitPerimeter=0;labelBackgroundColor=none;fontColor=default;" edge="1" parent="1" source="mN9uIAr1oCqCLTwYiSw4-1" target="mN9uIAr1oCqCLTwYiSw4-4">
          <mxGeometry width="50" height="50" relative="1" as="geometry">
            <mxPoint x="170" y="120" as="sourcePoint" />
            <mxPoint x="200" y="90" as="targetPoint" />
            <Array as="points" />
          </mxGeometry>
        </mxCell>
        <mxCell id="mN9uIAr1oCqCLTwYiSw4-6" value="email" style="ellipse;whiteSpace=wrap;html=1;rounded=0;labelBackgroundColor=none;fontSize=8;" vertex="1" parent="1">
          <mxGeometry x="139" y="76" width="40" height="20" as="geometry" />
        </mxCell>
        <mxCell id="mN9uIAr1oCqCLTwYiSw4-7" value="" style="endArrow=none;html=1;rounded=0;entryX=0.5;entryY=1;entryDx=0;entryDy=0;exitX=0.25;exitY=0;exitDx=0;exitDy=0;labelBackgroundColor=none;fontColor=default;" edge="1" parent="1" source="mN9uIAr1oCqCLTwYiSw4-1" target="mN9uIAr1oCqCLTwYiSw4-6">
          <mxGeometry width="50" height="50" relative="1" as="geometry">
            <mxPoint x="100" y="150" as="sourcePoint" />
            <mxPoint x="150" y="100" as="targetPoint" />
          </mxGeometry>
        </mxCell>
        <mxCell id="mN9uIAr1oCqCLTwYiSw4-9" value="&lt;font style=&quot;font-size: 8px;&quot;&gt;password&lt;/font&gt;" style="ellipse;whiteSpace=wrap;html=1;rounded=0;labelBackgroundColor=none;fontSize=8;" vertex="1" parent="1">
          <mxGeometry x="227" y="106" width="50" height="20" as="geometry" />
        </mxCell>
        <mxCell id="mN9uIAr1oCqCLTwYiSw4-11" value="" style="endArrow=none;html=1;rounded=0;entryX=0.024;entryY=0.64;entryDx=0;entryDy=0;entryPerimeter=0;exitX=1.01;exitY=0.367;exitDx=0;exitDy=0;exitPerimeter=0;labelBackgroundColor=none;fontColor=default;" edge="1" parent="1" source="mN9uIAr1oCqCLTwYiSw4-1" target="mN9uIAr1oCqCLTwYiSw4-9">
          <mxGeometry width="50" height="50" relative="1" as="geometry">
            <mxPoint x="220" y="190" as="sourcePoint" />
            <mxPoint x="270" y="140" as="targetPoint" />
          </mxGeometry>
        </mxCell>
        <mxCell id="mN9uIAr1oCqCLTwYiSw4-14" value="rol" style="ellipse;whiteSpace=wrap;html=1;rounded=0;labelBackgroundColor=none;fontSize=8;" vertex="1" parent="1">
          <mxGeometry x="114" y="94" width="30" height="20" as="geometry" />
        </mxCell>
        <mxCell id="mN9uIAr1oCqCLTwYiSw4-15" value="" style="endArrow=none;html=1;rounded=0;entryX=0.955;entryY=0.69;entryDx=0;entryDy=0;entryPerimeter=0;exitX=0;exitY=0.25;exitDx=0;exitDy=0;labelBackgroundColor=none;fontColor=default;" edge="1" parent="1" source="mN9uIAr1oCqCLTwYiSw4-1" target="mN9uIAr1oCqCLTwYiSw4-14">
          <mxGeometry width="50" height="50" relative="1" as="geometry">
            <mxPoint x="170" y="190" as="sourcePoint" />
            <mxPoint x="220" y="140" as="targetPoint" />
          </mxGeometry>
        </mxCell>
        <mxCell id="mN9uIAr1oCqCLTwYiSw4-24" value="" style="endArrow=none;html=1;rounded=0;entryX=0;entryY=0.75;entryDx=0;entryDy=0;exitX=1.01;exitY=0.33;exitDx=0;exitDy=0;exitPerimeter=0;labelBackgroundColor=none;fontColor=default;" edge="1" parent="1" source="mN9uIAr1oCqCLTwYiSw4-73" target="mN9uIAr1oCqCLTwYiSw4-1">
          <mxGeometry width="50" height="50" relative="1" as="geometry">
            <mxPoint x="190" y="150" as="sourcePoint" />
            <mxPoint x="290" y="140" as="targetPoint" />
          </mxGeometry>
        </mxCell>
        <mxCell id="mN9uIAr1oCqCLTwYiSw4-33" value="Producto" style="rounded=0;whiteSpace=wrap;html=1;fontSize=8;labelBackgroundColor=none;" vertex="1" parent="1">
          <mxGeometry x="430" y="100" width="70" height="30" as="geometry" />
        </mxCell>
        <mxCell id="mN9uIAr1oCqCLTwYiSw4-34" value="" style="endArrow=none;html=1;rounded=0;exitX=1;exitY=0;exitDx=0;exitDy=0;entryX=0.248;entryY=0.94;entryDx=0;entryDy=0;entryPerimeter=0;labelBackgroundColor=none;fontColor=default;" edge="1" parent="1" source="mN9uIAr1oCqCLTwYiSw4-33" target="mN9uIAr1oCqCLTwYiSw4-35">
          <mxGeometry width="50" height="50" relative="1" as="geometry">
            <mxPoint x="510" y="140" as="sourcePoint" />
            <mxPoint x="520" y="90" as="targetPoint" />
          </mxGeometry>
        </mxCell>
        <mxCell id="mN9uIAr1oCqCLTwYiSw4-35" value="&lt;u style=&quot;font-size: 8px;&quot;&gt;ID&lt;/u&gt;" style="ellipse;whiteSpace=wrap;html=1;rounded=0;labelBackgroundColor=none;fontSize=8;" vertex="1" parent="1">
          <mxGeometry x="506" y="75" width="30" height="20" as="geometry" />
        </mxCell>
        <mxCell id="mN9uIAr1oCqCLTwYiSw4-36" value="&lt;font style=&quot;font-size: 8px;&quot;&gt;nombre&lt;/font&gt;" style="ellipse;whiteSpace=wrap;html=1;rounded=0;labelBackgroundColor=none;fontSize=8;" vertex="1" parent="1">
          <mxGeometry x="461" y="74" width="40" height="20" as="geometry" />
        </mxCell>
        <mxCell id="mN9uIAr1oCqCLTwYiSw4-37" value="" style="endArrow=none;html=1;rounded=0;entryX=0.5;entryY=1;entryDx=0;entryDy=0;exitX=0.61;exitY=0.007;exitDx=0;exitDy=0;exitPerimeter=0;labelBackgroundColor=none;fontColor=default;" edge="1" parent="1" source="mN9uIAr1oCqCLTwYiSw4-33" target="mN9uIAr1oCqCLTwYiSw4-36">
          <mxGeometry width="50" height="50" relative="1" as="geometry">
            <mxPoint x="450" y="120" as="sourcePoint" />
            <mxPoint x="480" y="90" as="targetPoint" />
            <Array as="points" />
          </mxGeometry>
        </mxCell>
        <mxCell id="mN9uIAr1oCqCLTwYiSw4-38" value="descripcion" style="ellipse;whiteSpace=wrap;html=1;rounded=0;labelBackgroundColor=none;fontSize=8;" vertex="1" parent="1">
          <mxGeometry x="407" y="74" width="50" height="20" as="geometry" />
        </mxCell>
        <mxCell id="mN9uIAr1oCqCLTwYiSw4-39" value="" style="endArrow=none;html=1;rounded=0;entryX=0.5;entryY=1;entryDx=0;entryDy=0;exitX=0.005;exitY=0.153;exitDx=0;exitDy=0;exitPerimeter=0;labelBackgroundColor=none;fontColor=default;" edge="1" parent="1" source="mN9uIAr1oCqCLTwYiSw4-33" target="mN9uIAr1oCqCLTwYiSw4-38">
          <mxGeometry width="50" height="50" relative="1" as="geometry">
            <mxPoint x="380" y="150" as="sourcePoint" />
            <mxPoint x="430" y="100" as="targetPoint" />
          </mxGeometry>
        </mxCell>
        <mxCell id="mN9uIAr1oCqCLTwYiSw4-40" value="&lt;font style=&quot;font-size: 8px;&quot;&gt;stock&lt;/font&gt;" style="ellipse;whiteSpace=wrap;html=1;rounded=0;labelBackgroundColor=none;fontSize=8;" vertex="1" parent="1">
          <mxGeometry x="507" y="98" width="30" height="20" as="geometry" />
        </mxCell>
        <mxCell id="mN9uIAr1oCqCLTwYiSw4-41" value="" style="endArrow=none;html=1;rounded=0;entryX=0.024;entryY=0.64;entryDx=0;entryDy=0;entryPerimeter=0;exitX=1.01;exitY=0.367;exitDx=0;exitDy=0;exitPerimeter=0;labelBackgroundColor=none;fontColor=default;" edge="1" parent="1" source="mN9uIAr1oCqCLTwYiSw4-33" target="mN9uIAr1oCqCLTwYiSw4-40">
          <mxGeometry width="50" height="50" relative="1" as="geometry">
            <mxPoint x="500" y="190" as="sourcePoint" />
            <mxPoint x="550" y="140" as="targetPoint" />
          </mxGeometry>
        </mxCell>
        <mxCell id="mN9uIAr1oCqCLTwYiSw4-42" value="precio" style="ellipse;whiteSpace=wrap;html=1;rounded=0;labelBackgroundColor=none;fontSize=8;" vertex="1" parent="1">
          <mxGeometry x="385" y="94" width="40" height="20" as="geometry" />
        </mxCell>
        <mxCell id="mN9uIAr1oCqCLTwYiSw4-43" value="" style="endArrow=none;html=1;rounded=0;entryX=0.955;entryY=0.69;entryDx=0;entryDy=0;entryPerimeter=0;exitX=-0.017;exitY=0.367;exitDx=0;exitDy=0;exitPerimeter=0;labelBackgroundColor=none;fontColor=default;" edge="1" parent="1" source="mN9uIAr1oCqCLTwYiSw4-33" target="mN9uIAr1oCqCLTwYiSw4-42">
          <mxGeometry width="50" height="50" relative="1" as="geometry">
            <mxPoint x="450" y="190" as="sourcePoint" />
            <mxPoint x="500" y="140" as="targetPoint" />
          </mxGeometry>
        </mxCell>
        <mxCell id="mN9uIAr1oCqCLTwYiSw4-56" value="Categoria" style="rounded=0;whiteSpace=wrap;html=1;fontSize=8;labelBackgroundColor=none;" vertex="1" parent="1">
          <mxGeometry x="470" y="210" width="80" height="30" as="geometry" />
        </mxCell>
        <mxCell id="mN9uIAr1oCqCLTwYiSw4-57" value="" style="endArrow=none;html=1;rounded=0;exitX=0.465;exitY=0.007;exitDx=0;exitDy=0;entryX=0.248;entryY=0.94;entryDx=0;entryDy=0;entryPerimeter=0;exitPerimeter=0;labelBackgroundColor=none;fontColor=default;" edge="1" parent="1" source="mN9uIAr1oCqCLTwYiSw4-56" target="mN9uIAr1oCqCLTwYiSw4-58">
          <mxGeometry width="50" height="50" relative="1" as="geometry">
            <mxPoint x="550" y="250" as="sourcePoint" />
            <mxPoint x="560" y="200" as="targetPoint" />
          </mxGeometry>
        </mxCell>
        <mxCell id="mN9uIAr1oCqCLTwYiSw4-58" value="&lt;u style=&quot;font-size: 8px;&quot;&gt;ID&lt;/u&gt;" style="ellipse;whiteSpace=wrap;html=1;rounded=0;labelBackgroundColor=none;fontSize=8;" vertex="1" parent="1">
          <mxGeometry x="507" y="186" width="30" height="20" as="geometry" />
        </mxCell>
        <mxCell id="mN9uIAr1oCqCLTwYiSw4-59" value="&lt;font style=&quot;font-size: 8px;&quot;&gt;nombre&lt;/font&gt;" style="ellipse;whiteSpace=wrap;html=1;rounded=0;labelBackgroundColor=none;fontSize=8;" vertex="1" parent="1">
          <mxGeometry x="461" y="186" width="40" height="20" as="geometry" />
        </mxCell>
        <mxCell id="mN9uIAr1oCqCLTwYiSw4-60" value="" style="endArrow=none;html=1;rounded=0;entryX=0.6;entryY=0.99;entryDx=0;entryDy=0;entryPerimeter=0;exitX=0.18;exitY=0.007;exitDx=0;exitDy=0;exitPerimeter=0;labelBackgroundColor=none;fontColor=default;" edge="1" parent="1" source="mN9uIAr1oCqCLTwYiSw4-56" target="mN9uIAr1oCqCLTwYiSw4-59">
          <mxGeometry width="50" height="50" relative="1" as="geometry">
            <mxPoint x="490" y="230" as="sourcePoint" />
            <mxPoint x="520" y="200" as="targetPoint" />
            <Array as="points" />
          </mxGeometry>
        </mxCell>
        <mxCell id="mN9uIAr1oCqCLTwYiSw4-67" value="categoria" style="ellipse;whiteSpace=wrap;html=1;rounded=0;labelBackgroundColor=none;fontSize=8;" vertex="1" parent="1">
          <mxGeometry x="506" y="124" width="50" height="20" as="geometry" />
        </mxCell>
        <mxCell id="mN9uIAr1oCqCLTwYiSw4-68" value="" style="endArrow=none;html=1;rounded=0;fontSize=12;startSize=8;endSize=8;curved=1;entryX=1;entryY=1;entryDx=0;entryDy=0;exitX=0.034;exitY=0.35;exitDx=0;exitDy=0;exitPerimeter=0;labelBackgroundColor=none;fontColor=default;" edge="1" parent="1" source="mN9uIAr1oCqCLTwYiSw4-67" target="mN9uIAr1oCqCLTwYiSw4-33">
          <mxGeometry width="50" height="50" relative="1" as="geometry">
            <mxPoint x="330" y="200" as="sourcePoint" />
            <mxPoint x="380" y="150" as="targetPoint" />
          </mxGeometry>
        </mxCell>
        <mxCell id="mN9uIAr1oCqCLTwYiSw4-70" value="" style="endArrow=none;html=1;rounded=0;fontSize=12;startSize=8;endSize=8;curved=1;exitX=0;exitY=0.5;exitDx=0;exitDy=0;labelBackgroundColor=none;fontColor=default;" edge="1" parent="1" source="mN9uIAr1oCqCLTwYiSw4-56" target="mN9uIAr1oCqCLTwYiSw4-77">
          <mxGeometry width="50" height="50" relative="1" as="geometry">
            <mxPoint x="355" y="220" as="sourcePoint" />
            <mxPoint x="387.5999999999999" y="178.60000000000002" as="targetPoint" />
          </mxGeometry>
        </mxCell>
        <mxCell id="mN9uIAr1oCqCLTwYiSw4-72" value="" style="endArrow=none;html=1;rounded=0;fontSize=12;startSize=8;endSize=8;curved=1;exitX=1;exitY=0;exitDx=0;exitDy=0;entryX=0.05;entryY=0.993;entryDx=0;entryDy=0;entryPerimeter=0;labelBackgroundColor=none;fontColor=default;" edge="1" parent="1" source="mN9uIAr1oCqCLTwYiSw4-77" target="mN9uIAr1oCqCLTwYiSw4-33">
          <mxGeometry width="50" height="50" relative="1" as="geometry">
            <mxPoint x="393.5999999999999" y="162.60000000000002" as="sourcePoint" />
            <mxPoint x="434" y="130" as="targetPoint" />
          </mxGeometry>
        </mxCell>
        <mxCell id="mN9uIAr1oCqCLTwYiSw4-73" value="roles" style="ellipse;shape=doubleEllipse;whiteSpace=wrap;html=1;fontSize=8;rounded=0;labelBackgroundColor=none;" vertex="1" parent="1">
          <mxGeometry x="103" y="116" width="40" height="20" as="geometry" />
        </mxCell>
        <mxCell id="mN9uIAr1oCqCLTwYiSw4-74" style="edgeStyle=none;curved=1;rounded=0;orthogonalLoop=1;jettySize=auto;html=1;exitX=1;exitY=0.5;exitDx=0;exitDy=0;fontSize=12;startSize=8;endSize=8;" edge="1" parent="1" source="mN9uIAr1oCqCLTwYiSw4-67" target="mN9uIAr1oCqCLTwYiSw4-67">
          <mxGeometry relative="1" as="geometry" />
        </mxCell>
        <mxCell id="mN9uIAr1oCqCLTwYiSw4-77" value="Tiene" style="shape=rhombus;perimeter=rhombusPerimeter;whiteSpace=wrap;html=1;align=center;fontSize=8;" vertex="1" parent="1">
          <mxGeometry x="380" y="150" width="50" height="30" as="geometry" />
        </mxCell>
        <mxCell id="mN9uIAr1oCqCLTwYiSw4-81" value="&lt;span style=&quot;font-size: 5px;&quot;&gt;(1, N)&lt;/span&gt;" style="text;html=1;align=center;verticalAlign=middle;resizable=0;points=[];autosize=1;strokeColor=none;fillColor=none;fontSize=16;" vertex="1" parent="1">
          <mxGeometry x="420" y="118" width="40" height="30" as="geometry" />
        </mxCell>
        <mxCell id="mN9uIAr1oCqCLTwYiSw4-83" value="&lt;font style=&quot;font-size: 5px;&quot;&gt;(0, 1)&lt;/font&gt;" style="text;html=1;align=center;verticalAlign=middle;resizable=0;points=[];autosize=1;strokeColor=none;fillColor=none;fontSize=16;" vertex="1" parent="1">
          <mxGeometry x="440" y="210" width="40" height="30" as="geometry" />
        </mxCell>
        <mxCell id="mN9uIAr1oCqCLTwYiSw4-85" value="Pedido" style="whiteSpace=wrap;html=1;align=center;fontSize=8;" vertex="1" parent="1">
          <mxGeometry x="110" y="196" width="70" height="30" as="geometry" />
        </mxCell>
        <mxCell id="mN9uIAr1oCqCLTwYiSw4-86" value="&lt;u&gt;ID&lt;/u&gt;" style="ellipse;whiteSpace=wrap;html=1;align=center;fontSize=8;" vertex="1" parent="1">
          <mxGeometry x="159" y="231" width="25" height="20" as="geometry" />
        </mxCell>
        <mxCell id="mN9uIAr1oCqCLTwYiSw4-88" value="" style="endArrow=none;html=1;rounded=0;fontSize=12;startSize=8;endSize=8;curved=1;exitX=0.75;exitY=1;exitDx=0;exitDy=0;entryX=0.5;entryY=0;entryDx=0;entryDy=0;" edge="1" parent="1" source="mN9uIAr1oCqCLTwYiSw4-85" target="mN9uIAr1oCqCLTwYiSw4-86">
          <mxGeometry width="50" height="50" relative="1" as="geometry">
            <mxPoint x="150" y="196" as="sourcePoint" />
            <mxPoint x="200" y="146" as="targetPoint" />
          </mxGeometry>
        </mxCell>
        <mxCell id="mN9uIAr1oCqCLTwYiSw4-89" value="fecha" style="ellipse;whiteSpace=wrap;html=1;align=center;fontSize=8;" vertex="1" parent="1">
          <mxGeometry x="103" y="230" width="35" height="20" as="geometry" />
        </mxCell>
        <mxCell id="mN9uIAr1oCqCLTwYiSw4-90" value="" style="endArrow=none;html=1;rounded=0;fontSize=12;startSize=8;endSize=8;curved=1;entryX=0.25;entryY=1;entryDx=0;entryDy=0;exitX=0.5;exitY=0;exitDx=0;exitDy=0;" edge="1" parent="1" source="mN9uIAr1oCqCLTwYiSw4-89" target="mN9uIAr1oCqCLTwYiSw4-85">
          <mxGeometry width="50" height="50" relative="1" as="geometry">
            <mxPoint x="-15" y="166" as="sourcePoint" />
            <mxPoint x="35" y="116" as="targetPoint" />
          </mxGeometry>
        </mxCell>
        <mxCell id="mN9uIAr1oCqCLTwYiSw4-92" value="Detalle Pedido" style="shape=ext;margin=3;double=1;whiteSpace=wrap;html=1;align=center;fontSize=8;" vertex="1" parent="1">
          <mxGeometry x="275" y="196" width="70" height="30" as="geometry" />
        </mxCell>
        <mxCell id="mN9uIAr1oCqCLTwYiSw4-96" value="cantidad" style="ellipse;whiteSpace=wrap;html=1;align=center;fontSize=8;" vertex="1" parent="1">
          <mxGeometry x="322" y="231" width="35" height="20" as="geometry" />
        </mxCell>
        <mxCell id="mN9uIAr1oCqCLTwYiSw4-97" value="precio" style="ellipse;whiteSpace=wrap;html=1;align=center;fontSize=8;" vertex="1" parent="1">
          <mxGeometry x="266" y="230" width="35" height="20" as="geometry" />
        </mxCell>
        <mxCell id="mN9uIAr1oCqCLTwYiSw4-99" value="" style="endArrow=none;html=1;rounded=0;fontSize=12;startSize=8;endSize=8;curved=1;entryX=0.25;entryY=1;entryDx=0;entryDy=0;exitX=0.5;exitY=0;exitDx=0;exitDy=0;" edge="1" parent="1" source="mN9uIAr1oCqCLTwYiSw4-97" target="mN9uIAr1oCqCLTwYiSw4-92">
          <mxGeometry width="50" height="50" relative="1" as="geometry">
            <mxPoint x="175" y="226" as="sourcePoint" />
            <mxPoint x="225" y="176" as="targetPoint" />
          </mxGeometry>
        </mxCell>
        <mxCell id="mN9uIAr1oCqCLTwYiSw4-100" value="" style="endArrow=none;html=1;rounded=0;fontSize=12;startSize=8;endSize=8;curved=1;entryX=0.75;entryY=1;entryDx=0;entryDy=0;exitX=0.5;exitY=0;exitDx=0;exitDy=0;" edge="1" parent="1" source="mN9uIAr1oCqCLTwYiSw4-96" target="mN9uIAr1oCqCLTwYiSw4-92">
          <mxGeometry width="50" height="50" relative="1" as="geometry">
            <mxPoint x="175" y="226" as="sourcePoint" />
            <mxPoint x="225" y="176" as="targetPoint" />
          </mxGeometry>
        </mxCell>
        <mxCell id="mN9uIAr1oCqCLTwYiSw4-102" value="Tiene" style="shape=rhombus;double=1;perimeter=rhombusPerimeter;whiteSpace=wrap;html=1;align=center;fontSize=8;" vertex="1" parent="1">
          <mxGeometry x="205" y="196" width="40" height="30" as="geometry" />
        </mxCell>
        <mxCell id="mN9uIAr1oCqCLTwYiSw4-103" value="" style="endArrow=none;html=1;rounded=0;fontSize=12;startSize=8;endSize=8;curved=1;entryX=0;entryY=0.5;entryDx=0;entryDy=0;exitX=1;exitY=0.5;exitDx=0;exitDy=0;" edge="1" parent="1" source="mN9uIAr1oCqCLTwYiSw4-102" target="mN9uIAr1oCqCLTwYiSw4-92">
          <mxGeometry width="50" height="50" relative="1" as="geometry">
            <mxPoint x="175" y="226" as="sourcePoint" />
            <mxPoint x="225" y="176" as="targetPoint" />
          </mxGeometry>
        </mxCell>
        <mxCell id="mN9uIAr1oCqCLTwYiSw4-104" value="" style="endArrow=none;html=1;rounded=0;fontSize=12;startSize=8;endSize=8;curved=1;entryX=0;entryY=0.5;entryDx=0;entryDy=0;exitX=1;exitY=0.5;exitDx=0;exitDy=0;" edge="1" parent="1" source="mN9uIAr1oCqCLTwYiSw4-85" target="mN9uIAr1oCqCLTwYiSw4-102">
          <mxGeometry width="50" height="50" relative="1" as="geometry">
            <mxPoint x="175" y="226" as="sourcePoint" />
            <mxPoint x="225" y="176" as="targetPoint" />
          </mxGeometry>
        </mxCell>
        <mxCell id="mN9uIAr1oCqCLTwYiSw4-105" value="&lt;span style=&quot;font-size: 5px;&quot;&gt;(1,N)&lt;/span&gt;" style="text;html=1;align=center;verticalAlign=middle;resizable=0;points=[];autosize=1;strokeColor=none;fillColor=none;fontSize=16;" vertex="1" parent="1">
          <mxGeometry x="250" y="186" width="30" height="30" as="geometry" />
        </mxCell>
        <mxCell id="mN9uIAr1oCqCLTwYiSw4-106" value="&lt;span style=&quot;font-size: 5px;&quot;&gt;(1,1)&lt;/span&gt;" style="text;html=1;align=center;verticalAlign=middle;resizable=0;points=[];autosize=1;strokeColor=none;fillColor=none;fontSize=16;" vertex="1" parent="1">
          <mxGeometry x="175" y="186" width="30" height="30" as="geometry" />
        </mxCell>
        <mxCell id="mN9uIAr1oCqCLTwYiSw4-107" value="Crea" style="shape=rhombus;perimeter=rhombusPerimeter;whiteSpace=wrap;html=1;align=center;fontSize=8;" vertex="1" parent="1">
          <mxGeometry x="135" y="150" width="40" height="30" as="geometry" />
        </mxCell>
        <mxCell id="mN9uIAr1oCqCLTwYiSw4-108" value="" style="endArrow=none;html=1;rounded=0;fontSize=12;startSize=8;endSize=8;curved=1;entryX=0.25;entryY=1;entryDx=0;entryDy=0;exitX=0.5;exitY=0;exitDx=0;exitDy=0;" edge="1" parent="1" source="mN9uIAr1oCqCLTwYiSw4-107" target="mN9uIAr1oCqCLTwYiSw4-1">
          <mxGeometry width="50" height="50" relative="1" as="geometry">
            <mxPoint x="135" y="190" as="sourcePoint" />
            <mxPoint x="185" y="140" as="targetPoint" />
          </mxGeometry>
        </mxCell>
        <mxCell id="mN9uIAr1oCqCLTwYiSw4-109" value="" style="endArrow=none;html=1;rounded=0;fontSize=12;startSize=8;endSize=8;curved=1;entryX=0.5;entryY=1;entryDx=0;entryDy=0;exitX=0.5;exitY=0;exitDx=0;exitDy=0;" edge="1" parent="1" source="mN9uIAr1oCqCLTwYiSw4-85" target="mN9uIAr1oCqCLTwYiSw4-107">
          <mxGeometry width="50" height="50" relative="1" as="geometry">
            <mxPoint x="210" y="250" as="sourcePoint" />
            <mxPoint x="260" y="200" as="targetPoint" />
          </mxGeometry>
        </mxCell>
        <mxCell id="mN9uIAr1oCqCLTwYiSw4-110" value="&lt;span style=&quot;font-size: 5px;&quot;&gt;(1,1)&lt;/span&gt;" style="text;html=1;align=center;verticalAlign=middle;resizable=0;points=[];autosize=1;strokeColor=none;fillColor=none;fontSize=16;" vertex="1" parent="1">
          <mxGeometry x="160" y="118" width="30" height="30" as="geometry" />
        </mxCell>
        <mxCell id="mN9uIAr1oCqCLTwYiSw4-111" value="&lt;span style=&quot;font-size: 5px;&quot;&gt;(0, N)&lt;/span&gt;" style="text;html=1;align=center;verticalAlign=middle;resizable=0;points=[];autosize=1;strokeColor=none;fillColor=none;fontSize=16;" vertex="1" parent="1">
          <mxGeometry x="115" y="170" width="40" height="30" as="geometry" />
        </mxCell>
      </root>
    </mxGraphModel>
  </diagram>
</mxfile>
